<svg width="40" height="40" viewBox="0 0 40 40" fill="none" xmlns="http://www.w3.org/2000/svg">
<path d="M19.9999 3.33398C17.8112 3.33398 15.644 3.76508 13.6219 4.60266C11.5998 5.44024 9.76245 6.66789 8.21481 8.21554C5.0892 11.3411 3.33325 15.5804 3.33325 20.0007C3.33325 27.3673 8.11659 33.6173 14.7333 35.834C15.5666 35.9673 15.8333 35.4506 15.8333 35.0007V32.184C11.2166 33.184 10.2333 29.9506 10.2333 29.9506C9.46658 28.0173 8.38325 27.5007 8.38325 27.5007C6.86659 26.4673 8.49992 26.5007 8.49992 26.5007C10.1666 26.6173 11.0499 28.2173 11.0499 28.2173C12.4999 30.7507 14.9499 30.0007 15.8999 29.6007C16.0499 28.5173 16.4833 27.784 16.9499 27.3673C13.2499 26.9507 9.36658 25.5173 9.36658 19.1673C9.36658 17.3173 9.99992 15.834 11.0833 14.6507C10.9166 14.234 10.3333 12.5007 11.2499 10.2507C11.2499 10.2507 12.6499 9.80065 15.8333 11.9507C17.1499 11.584 18.5833 11.4007 19.9999 11.4007C21.4166 11.4007 22.8499 11.584 24.1666 11.9507C27.3499 9.80065 28.7499 10.2507 28.7499 10.2507C29.6666 12.5007 29.0833 14.234 28.9166 14.6507C29.9999 15.834 30.6332 17.3173 30.6332 19.1673C30.6332 25.534 26.7333 26.934 23.0166 27.3507C23.6166 27.8673 24.1666 28.884 24.1666 30.434V35.0007C24.1666 35.4506 24.4333 35.984 25.2833 35.834C31.8999 33.6007 36.6666 27.3673 36.6666 20.0007C36.6666 17.812 36.2355 15.6447 35.3979 13.6226C34.5603 11.6005 33.3327 9.76318 31.785 8.21554C30.2374 6.66789 28.4001 5.44024 26.378 4.60266C24.3559 3.76508 22.1886 3.33398 19.9999 3.33398Z" fill="white"/>
</svg>
