<svg width="80" height="32" viewBox="0 0 80 32" fill="none" xmlns="http://www.w3.org/2000/svg">
<circle cx="15.6701" cy="15.6701" r="15.6701" fill="#0074D3"/>
<path d="M19.1154 19.959H16.5851L14.6981 16.3136L14.2478 16.0563L14.5694 15.413H15.009C15.3306 15.413 15.5844 15.2986 15.7702 15.0699C15.9561 14.834 16.049 14.5052 16.049 14.0835C16.049 13.6189 15.9275 13.2472 15.6845 12.9685C15.4486 12.6826 15.0983 12.5396 14.6337 12.5396C14.355 12.5396 14.0941 12.6218 13.8511 12.7862V18.7689L15.084 19.0905L14.6552 19.9483H10.5381V19.187L11.5459 18.3079V12.7111L10.3236 12.3895L10.7525 11.5318H12.8539C13.4544 11.5318 14.0476 11.5103 14.6337 11.4674C15.0626 11.4388 15.3771 11.4246 15.5772 11.4246C16.1634 11.4246 16.6816 11.5246 17.1319 11.7248C17.5893 11.9177 17.9432 12.1858 18.1933 12.5289C18.4435 12.872 18.5686 13.258 18.5686 13.6868C18.5686 14.1729 18.3542 14.6232 17.9253 15.0377C17.5036 15.4523 16.9746 15.7775 16.3385 16.0134L17.2927 16.2707L18.5257 18.6402L19.5443 19.1013L19.1154 19.959ZM26.847 19.959H19.8672V19.1977L20.875 18.4043V12.7219L19.6527 12.3895L20.0816 11.5318H26.7397L27.6296 11.3388V14.2336L26.8791 14.5553L25.5282 12.5503H23.1801V15.145H24.2201L25.0028 14.0406H25.7641V17.0856L24.9063 17.5144L24.188 16.1635H23.1801V18.9404H25.4317L26.9863 16.721L27.7368 17.0427V20.152L26.847 19.959ZM33.2501 19.0905L32.8213 19.9483H28.7041V19.187L29.712 18.3079V12.7111L28.4897 12.3895L28.9186 11.5318H33.0357V12.293L32.0171 13.1829V18.7689L33.2501 19.0905ZM37.6889 19.9483H35.2122L32.3173 15.7239L35.298 13.0864L34.0435 12.3788L34.4724 11.521H37.8926V12.2823L34.601 15.1879L36.9813 18.5759L38.1177 19.0905L37.6889 19.9483ZM48.0319 19.959H43.5932V19.1977L44.869 18.533L44.3222 17.1821H41.1915L40.7519 18.2757L42.253 19.1013L41.8241 19.959H38.2431V19.1977L39.4975 18.265L42.0707 11.8749L44.3651 11.3281L47.3457 18.5973L48.4608 19.1013L48.0319 19.959ZM42.7354 13.2901L41.5882 16.1635H43.9041L42.7354 13.2901ZM58.4787 19.959H54.3615V19.1977L55.3694 18.3186V16.2707H52.0993V18.7796L53.3323 19.1013L52.9034 19.959H48.7863V19.1977L49.7941 18.3186V12.7219L48.5719 12.4002L49.0007 11.5425H53.1178V12.3037L52.0993 13.1936V15.2629H55.3694V12.7219L54.1471 12.4002L54.576 11.5425H58.6931V12.3037L57.6745 13.1936V18.7796L58.9075 19.1013L58.4787 19.959ZM64.3746 11.4246C65.218 11.4246 65.9614 11.6032 66.6047 11.9606C67.2551 12.3109 67.759 12.8005 68.1164 13.4295C68.4738 14.0585 68.6525 14.7697 68.6525 15.5631C68.6525 16.378 68.3845 17.132 67.8484 17.8254C67.3194 18.5116 66.6583 19.0584 65.8649 19.4658C65.0786 19.8661 64.3281 20.0662 63.6133 20.0662C63.2988 20.0662 62.9808 20.0483 62.6591 20.0126C62.1445 19.9769 61.7406 19.959 61.4476 19.959H59.5498V19.1977L60.5577 18.4043V12.754L59.3354 12.3895L59.7643 11.5318H61.4368C62.0873 11.5318 62.727 11.5103 63.356 11.4674C63.8135 11.4388 64.153 11.4246 64.3746 11.4246ZM63.9135 18.9511C64.321 18.9511 64.6926 18.8261 65.0286 18.5759C65.3717 18.3257 65.6397 17.9826 65.8327 17.5466C66.0328 17.1035 66.1329 16.6103 66.1329 16.067C66.1329 15.4166 66.0364 14.8269 65.8434 14.298C65.6576 13.7619 65.3681 13.3366 64.975 13.0221C64.589 12.7004 64.1101 12.5396 63.5383 12.5396C63.3024 12.5396 63.0808 12.6004 62.8735 12.7219V18.7796C63.1809 18.894 63.5276 18.9511 63.9135 18.9511ZM74.8223 11.3173C75.68 11.3173 76.4377 11.4996 77.0953 11.8641C77.7529 12.2287 78.2604 12.7326 78.6178 13.3759C78.9752 14.0192 79.1539 14.7483 79.1539 15.5631C79.1539 16.3994 78.8822 17.1714 78.339 17.879C77.8029 18.5866 77.1346 19.1477 76.3341 19.5623C75.5335 19.9697 74.7758 20.1734 74.0611 20.1734C73.2033 20.1734 72.4457 19.9947 71.7881 19.6373C71.1376 19.2728 70.6301 18.7689 70.2656 18.1256C69.9082 17.4823 69.7295 16.7532 69.7295 15.9384C69.7295 15.1021 69.9976 14.3301 70.5336 13.6225C71.0769 12.9077 71.7488 12.3466 72.5493 11.9392C73.3499 11.5246 74.1075 11.3173 74.8223 11.3173ZM74.2005 12.754C73.8431 12.754 73.5143 12.872 73.2141 13.1079C72.921 13.3366 72.6851 13.6547 72.5064 14.0621C72.3349 14.4695 72.2491 14.9234 72.2491 15.4237C72.2491 16.0313 72.3385 16.5852 72.5172 17.0856C72.6958 17.5859 72.9675 17.9862 73.332 18.2864C73.7037 18.5866 74.154 18.7367 74.6829 18.7367C75.0403 18.7367 75.3655 18.6224 75.6586 18.3936C75.9588 18.1577 76.1947 17.8361 76.3662 17.4287C76.5449 17.0213 76.6343 16.5674 76.6343 16.067C76.6343 15.4523 76.5449 14.8948 76.3662 14.3944C76.1875 13.8941 75.9159 13.4974 75.5514 13.2043C75.1868 12.9041 74.7365 12.754 74.2005 12.754Z" fill="white"/>
<path d="M19.1154 20.3716H16.5851L14.6981 16.7262L14.2478 16.4689L14.5694 15.8256H15.009C15.3306 15.8256 15.5844 15.7112 15.7702 15.4825C15.9561 15.2466 16.049 14.9178 16.049 14.4961C16.049 14.0315 15.9275 13.6598 15.6845 13.3811C15.4486 13.0952 15.0983 12.9522 14.6337 12.9522C14.355 12.9522 14.0941 13.0344 13.8511 13.1988V19.1815L15.084 19.5031L14.6552 20.3609H10.5381V19.5996L11.5459 18.7204V13.1237L10.3236 12.8021L10.7525 11.9444H12.8539C13.4544 11.9444 14.0476 11.9229 14.6337 11.88C15.0626 11.8514 15.3771 11.8371 15.5772 11.8371C16.1634 11.8371 16.6816 11.9372 17.1319 12.1374C17.5893 12.3303 17.9432 12.5984 18.1933 12.9415C18.4435 13.2846 18.5686 13.6706 18.5686 14.0994C18.5686 14.5855 18.3542 15.0358 17.9253 15.4503C17.5036 15.8649 16.9746 16.1901 16.3385 16.426L17.2927 16.6833L18.5257 19.0528L19.5443 19.5139L19.1154 20.3716ZM26.847 20.3716H19.8672V19.6103L20.875 18.8169V13.1345L19.6527 12.8021L20.0816 11.9444H26.7397L27.6296 11.7514V14.6462L26.8791 14.9679L25.5282 12.9629H23.1801V15.5576H24.2201L25.0028 14.4532H25.7641V17.4982L24.9063 17.927L24.188 16.5761H23.1801V19.353H25.4317L26.9863 17.1336L27.7368 17.4553V20.5646L26.847 20.3716ZM33.2501 19.5031L32.8213 20.3609H28.7041V19.5996L29.712 18.7204V13.1237L28.4897 12.8021L28.9186 11.9444H33.0357V12.7056L32.0171 13.5955V19.1815L33.2501 19.5031ZM37.6889 20.3609H35.2122L32.3173 16.1365L35.298 13.499L34.0435 12.7914L34.4724 11.9336H37.8926V12.6949L34.601 15.6004L36.9813 18.9885L38.1177 19.5031L37.6889 20.3609ZM48.0319 20.3716H43.5932V19.6103L44.869 18.9456L44.3222 17.5947H41.1915L40.7519 18.6883L42.253 19.5139L41.8241 20.3716H38.2431V19.6103L39.4975 18.6776L42.0707 12.2875L44.3651 11.7407L47.3457 19.0099L48.4608 19.5139L48.0319 20.3716ZM42.7354 13.7027L41.5882 16.5761H43.9041L42.7354 13.7027ZM58.4787 20.3716H54.3615V19.6103L55.3694 18.7312V16.6833H52.0993V19.1922L53.3323 19.5139L52.9034 20.3716H48.7863V19.6103L49.7941 18.7312V13.1345L48.5719 12.8128L49.0007 11.9551H53.1178V12.7163L52.0993 13.6062V15.6755H55.3694V13.1345L54.1471 12.8128L54.576 11.9551H58.6931V12.7163L57.6745 13.6062V19.1922L58.9075 19.5139L58.4787 20.3716ZM64.3746 11.8371C65.218 11.8371 65.9614 12.0158 66.6047 12.3732C67.2551 12.7235 67.759 13.2131 68.1164 13.8421C68.4738 14.4711 68.6525 15.1823 68.6525 15.9757C68.6525 16.7906 68.3845 17.5446 67.8484 18.238C67.3194 18.9242 66.6583 19.471 65.8649 19.8784C65.0786 20.2787 64.3281 20.4788 63.6133 20.4788C63.2988 20.4788 62.9808 20.4609 62.6591 20.4252C62.1445 20.3895 61.7406 20.3716 61.4476 20.3716H59.5498V19.6103L60.5577 18.8169V13.1666L59.3354 12.8021L59.7643 11.9444H61.4368C62.0873 11.9444 62.727 11.9229 63.356 11.88C63.8135 11.8514 64.153 11.8371 64.3746 11.8371ZM63.9135 19.3637C64.321 19.3637 64.6926 19.2387 65.0286 18.9885C65.3717 18.7383 65.6397 18.3952 65.8327 17.9592C66.0328 17.516 66.1329 17.0229 66.1329 16.4796C66.1329 15.8292 66.0364 15.2395 65.8434 14.7106C65.6576 14.1745 65.3681 13.7492 64.975 13.4347C64.589 13.113 64.1101 12.9522 63.5383 12.9522C63.3024 12.9522 63.0808 13.013 62.8735 13.1345V19.1922C63.1809 19.3066 63.5276 19.3637 63.9135 19.3637ZM74.8223 11.7299C75.68 11.7299 76.4377 11.9122 77.0953 12.2767C77.7529 12.6413 78.2604 13.1452 78.6178 13.7885C78.9752 14.4318 79.1539 15.1609 79.1539 15.9757C79.1539 16.812 78.8822 17.584 78.339 18.2916C77.8029 18.9992 77.1346 19.5603 76.3341 19.9749C75.5335 20.3823 74.7758 20.586 74.0611 20.586C73.2033 20.586 72.4457 20.4073 71.7881 20.0499C71.1376 19.6854 70.6301 19.1815 70.2656 18.5382C69.9082 17.8949 69.7295 17.1658 69.7295 16.351C69.7295 15.5147 69.9976 14.7427 70.5336 14.0351C71.0769 13.3203 71.7488 12.7592 72.5493 12.3518C73.3499 11.9372 74.1075 11.7299 74.8223 11.7299ZM74.2005 13.1666C73.8431 13.1666 73.5143 13.2846 73.2141 13.5204C72.921 13.7492 72.6851 14.0673 72.5064 14.4747C72.3349 14.8821 72.2491 15.336 72.2491 15.8363C72.2491 16.4439 72.3385 16.9978 72.5172 17.4982C72.6958 17.9985 72.9675 18.3988 73.332 18.699C73.7037 18.9992 74.154 19.1493 74.6829 19.1493C75.0403 19.1493 75.3655 19.0349 75.6586 18.8062C75.9588 18.5703 76.1947 18.2487 76.3662 17.8413C76.5449 17.4339 76.6343 16.98 76.6343 16.4796C76.6343 15.8649 76.5449 15.3074 76.3662 14.807C76.1875 14.3067 75.9159 13.91 75.5514 13.6169C75.1868 13.3167 74.7365 13.1666 74.2005 13.1666Z" fill="white"/>
<path d="M64.7909 27.4659C65.0109 27.4659 65.1912 27.5341 65.332 27.6705C65.4771 27.8068 65.5497 27.9762 65.5497 28.1785C65.5497 28.3193 65.4969 28.4512 65.3914 28.5744C65.2902 28.6975 65.1626 28.7965 65.0087 28.8713C64.8547 28.9461 64.7052 28.9835 64.56 28.9835C64.3445 28.9835 64.1641 28.9153 64.019 28.7789C63.8738 28.6426 63.8012 28.4754 63.8012 28.2775C63.8012 28.1367 63.8518 28.0048 63.953 27.8816C64.0586 27.754 64.1883 27.6529 64.3423 27.5781C64.4962 27.5033 64.6458 27.4659 64.7909 27.4659ZM70.3675 28.9175H68.718V28.416L68.078 28.9307C67.9372 28.9659 67.7767 28.9835 67.5964 28.9835C67.306 28.9835 67.0443 28.9087 66.8112 28.7591C66.5825 28.6052 66.4021 28.3962 66.2702 28.1323C66.1426 27.864 66.0788 27.5671 66.0788 27.2416C66.0788 26.8897 66.1954 26.562 66.4285 26.2585C66.6616 25.955 66.9542 25.7153 67.306 25.5393C67.6579 25.359 67.9988 25.2688 68.3287 25.2688C68.4651 25.2688 68.5948 25.2996 68.718 25.3612V24.5958L68.1308 24.2132V23.7447L69.5229 23.1575H70.0376V28.2049L70.6314 28.3896L70.3675 28.9175ZM68.0516 27.9014C68.2891 27.9014 68.5135 27.853 68.7246 27.7562V26.6478C68.6982 26.5026 68.619 26.3839 68.4871 26.2915C68.3551 26.1991 68.1748 26.1529 67.946 26.1529C67.6249 26.1529 67.4644 26.4125 67.4644 26.9315C67.4644 27.2174 67.5128 27.4505 67.6095 27.6309C67.7063 27.8112 67.8515 27.9014 68.045 27.9014H68.0516ZM73.2384 25.2688C73.7266 25.2688 74.1049 25.4514 74.3732 25.8164C74.6415 26.1815 74.7691 26.7006 74.7559 27.3736H72.4268C72.4796 27.5759 72.5676 27.7364 72.6907 27.8552C72.8139 27.9696 72.97 28.0268 73.1592 28.0268C73.4715 28.0268 73.9377 27.9124 74.5579 27.6837L74.7559 28.1323L73.852 28.8581C73.5529 28.9417 73.1944 28.9835 72.7765 28.9835C72.4334 28.9835 72.1255 28.9087 71.8528 28.7591C71.5845 28.6052 71.3733 28.3962 71.2194 28.1323C71.0698 27.864 70.9951 27.5671 70.9951 27.2416C70.9951 26.8897 71.1116 26.562 71.3448 26.2585C71.5779 25.955 71.8704 25.7153 72.2223 25.5393C72.5742 25.359 72.9151 25.2688 73.245 25.2688H73.2384ZM72.8887 26.1529C72.7259 26.1529 72.6028 26.2101 72.5192 26.3245C72.4356 26.4345 72.3894 26.606 72.3806 26.8391H73.4693C73.4473 26.606 73.3901 26.4345 73.2977 26.3245C73.2054 26.2101 73.0668 26.1529 72.8821 26.1529H72.8887ZM79.3738 25.8033L77.6649 28.9175H76.6356L75.6921 26.6214L75.0257 26.2321V25.7637L76.6818 25.2094L76.9325 26.2057L77.6055 27.8288L78.3181 26.496L77.335 25.8626L77.5989 25.3348H79.3738V25.8033Z" fill="#FFA600"/>
</svg>
