<svg width="40" height="40" viewBox="0 0 40 40" fill="none" xmlns="http://www.w3.org/2000/svg">
<path d="M31.7498 8.18359C30.2216 6.64043 28.4015 5.41686 26.3957 4.58419C24.3898 3.75152 22.2383 3.32639 20.0665 3.33359C10.9665 3.33359 3.54984 10.7503 3.54984 19.8503C3.54984 22.7669 4.3165 25.6003 5.74984 28.1003L3.4165 36.6669L12.1665 34.3669C14.5832 35.6836 17.2998 36.3836 20.0665 36.3836C29.1665 36.3836 36.5832 28.9669 36.5832 19.8669C36.5832 15.4503 34.8665 11.3003 31.7498 8.18359ZM20.0665 33.5836C17.5998 33.5836 15.1832 32.9169 13.0665 31.6669L12.5665 31.3669L7.3665 32.7336L8.74984 27.6669L8.4165 27.1503C7.04575 24.962 6.31805 22.4324 6.3165 19.8503C6.3165 12.2836 12.4832 6.11692 20.0498 6.11692C23.7165 6.11692 27.1665 7.55025 29.7498 10.1503C31.0292 11.4234 32.043 12.9378 32.7325 14.6058C33.4221 16.2738 33.7735 18.0621 33.7665 19.8669C33.7998 27.4336 27.6332 33.5836 20.0665 33.5836ZM27.5998 23.3169C27.1832 23.1169 25.1498 22.1169 24.7832 21.9669C24.3998 21.8336 24.1332 21.7669 23.8498 22.1669C23.5665 22.5836 22.7832 23.5169 22.5498 23.7836C22.3165 24.0669 22.0665 24.1003 21.6498 23.8836C21.2332 23.6836 19.8998 23.2336 18.3332 21.8336C17.0998 20.7336 16.2832 19.3836 16.0332 18.9669C15.7998 18.5503 15.9998 18.3336 16.2165 18.1169C16.3998 17.9336 16.6332 17.6336 16.8332 17.4003C17.0332 17.1669 17.1165 16.9836 17.2498 16.7169C17.3832 16.4336 17.3165 16.2003 17.2165 16.0003C17.1165 15.8003 16.2832 13.7669 15.9498 12.9336C15.6165 12.1336 15.2665 12.2336 15.0165 12.2169H14.2165C13.9332 12.2169 13.4998 12.3169 13.1165 12.7336C12.7498 13.1503 11.6832 14.1503 11.6832 16.1836C11.6832 18.2169 13.1665 20.1836 13.3665 20.4503C13.5665 20.7336 16.2832 24.9003 20.4165 26.6836C21.3998 27.1169 22.1665 27.3669 22.7665 27.5503C23.7498 27.8669 24.6498 27.8169 25.3665 27.7169C26.1665 27.6003 27.8165 26.7169 28.1498 25.7503C28.4998 24.7836 28.4998 23.9669 28.3832 23.7836C28.2665 23.6003 28.0165 23.5169 27.5998 23.3169Z" fill="white"/>
</svg>
